<?xml version="1.0" encoding="UTF-8"?><svg id="eyebrows" xmlns="http://www.w3.org/2000/svg" viewBox="0 0 280 280"><path d="M87.33,109.38s.28-.53.92-1.35c.33-.39.72-.91,1.24-1.41.5-.53,1.11-1.07,1.8-1.64.69-.56,1.48-1.13,2.34-1.68.88-.53,1.81-1.1,2.83-1.55,1-.51,2.09-.91,3.2-1.3,1.11-.41,2.28-.64,3.44-.95,1.18-.21,2.36-.4,3.52-.53,1.17-.08,2.32-.12,3.43-.14,1.11.06,2.18.14,3.19.23,1.01.1,1.95.33,2.81.5.86.19,1.65.35,2.33.61.68.23,1.27.45,1.75.63.96.37,1.49.62,1.49.62,0,0-.6.1-1.61.18-.51.04-1.12.1-1.81.13-.69.01-1.47.11-2.31.19-.84.09-1.74.1-2.69.21-.95.12-1.94.23-2.96.31-1.02.16-2.06.33-3.12.45-1.05.2-2.11.4-3.18.59-.53.12-1.05.25-1.58.37-.52.13-1.06.21-1.56.38-.51.15-1.02.28-1.53.41-.51.12-.99.32-1.48.45-.98.28-1.9.63-2.8.94-.46.13-.86.34-1.29.49-.42.16-.83.3-1.21.47-.77.32-1.48.61-2.11.9-.64.27-1.17.54-1.63.75-.44.23-.82.39-1.05.53-.25.13-.38.2-.38.2Z" style="fill:#34322d;"/><path d="M195.1,112.23s-.28-.53-.92-1.35c-.33-.39-.72-.91-1.24-1.41-.5-.53-1.11-1.07-1.8-1.64-.69-.56-1.48-1.13-2.34-1.68-.88-.53-1.81-1.1-2.83-1.55-1-.51-2.09-.91-3.2-1.3-1.11-.41-2.28-.64-3.44-.95-1.18-.21-2.36-.4-3.52-.53-1.17-.08-2.32-.12-3.43-.13-1.11.06-2.18.14-3.19.23-1.01.1-1.95.33-2.81.5-.86.19-1.65.35-2.33.61-.68.23-1.27.45-1.75.63-.96.37-1.49.62-1.49.62,0,0,.6.1,1.61.18.51.04,1.12.1,1.81.13.69.01,1.47.11,2.31.19.84.09,1.74.1,2.69.21.95.12,1.94.23,2.96.31,1.02.16,2.06.33,3.12.45,1.05.2,2.11.4,3.18.59.53.12,1.05.25,1.58.37.52.13,1.06.21,1.56.38.51.15,1.02.28,1.53.41.51.12.99.32,1.48.45.98.28,1.9.63,2.8.94.46.13.86.34,1.29.49.42.16.83.3,1.21.47.77.32,1.48.61,2.11.9.64.27,1.17.54,1.63.75.44.23.82.39,1.05.53.25.13.38.2.38.2Z" style="fill:#34322d;"/></svg>