<?xml version="1.0" encoding="UTF-8"?><svg id="Skin" xmlns="http://www.w3.org/2000/svg" viewBox="0 0 280 280"><path d="m236.65,125.21c.02-19.17-8.66-33.51-27.47-34.66-10.37-30.65-30.86-57.71-68.66-57.75-35.96-.04-56.88,27.01-67.91,57.67-18.18,1.61-28.45,15.77-28.43,34.58.02,16.07,7.83,29.68,18.63,34.37,3.84,30.54,26.65,55.43,56.77,63.43l-.02,22.48c7.57,1.85,13.57,1.85,22.57,1.85s16-1,19.07-1.8l.02-22.54c30.03-7.98,52.8-32.77,56.71-63.22,10.83-4.66,18.69-18.29,18.71-34.4Z" style="fill:#ffcc33; stroke-width:0px;"/></svg>
